<?xml version="1.0" encoding="utf-8"?>
<!-- Generator: Adobe Illustrator 24.0.0, SVG Export Plug-In . SVG Version: 6.00 Build 0)  -->
<svg version="1.1" id="Layer_1" xmlns="http://www.w3.org/2000/svg" xmlns:xlink="http://www.w3.org/1999/xlink" x="0px" y="0px"
	 viewBox="0 0 230 105.4" style="enable-background:new 0 0 230 105.4;" xml:space="preserve">
<g>
	<path d="M72.1,0c0.3,0,0.5,0,0.8,0c0.1,0.8,0.2,1.6,0.2,2.5c0,8.2,0,16.4,0,24.6c0,0.6-0.4,1.5,0.4,1.7c1.7,0.4,1.4,1.5,1.5,2.7
		c0,0.5-0.3,1.5,0.6,1.5c1.7,0,1.6,1.1,1.6,2.2s0.1,2.3,0,3.5c-0.1,1.3,0.4,1.6,1.6,1.6c5.3,0,10.6,0.1,15.9,0.4c1.6,0,2-0.5,1.9-2
		c-0.1-3,0-6,0-9.1c0.3,0.2,0.4,0.3,0.4,0.3c0.4,0.9,0.1,1.8,0.1,2.6c0,0.7,0.2,1.2,0.9,1.5c7.8,3.8,15.3,8.7,24.6,7.1
		c0.6-0.1,1.3,0,1.9,0c0.3,0,0.6-0.1,0.7-0.8c-2-0.3-4-0.7-6.1-1c-1.7-0.2-2.3-1-1.9-2.7c1.6-6.7,4-13.2,7-19.5
		c0.5-1,1.3-1.6,2.5-1.8c1.9-0.3,3.8-0.2,5.7-0.2c1,0,1.5-0.3,1.7-1.3c0.5-2.5,2.1-4.4,4.5-5.5c4.9-2.3,9.8-1.8,14.7,0.2
		c4.1,1.7,4.7,3.2,2.6,7.1c5.8,2.1,11.5,4.2,17.6,6.5c-0.3-0.5-0.4-0.6-0.4-0.8c-0.3-0.8-1.6-1.4-0.7-2.3c0.9-0.9,1.9,0,2.5,0.5
		c2.2,1.7,4.4,3.5,5.9,5.9c0.2,0.3,0.2,0.6,0.6,0.7c1.5,0.2,2.9,1,4.6,0.9c3.7-0.2,7.4,0,11.1,0c3.8,0,7.7,0.1,11.5-0.3
		c1.2-0.1,1.8,0.4,1.7,1.6c0,0.5,0,1,0,1.5c0.1,1.2-0.4,1.6-1.5,1.5c-1.3-0.1-2.7-0.2-4-0.2c-6.6,0-13.2,0-19.8,0
		c-1.5,0-2.3,0.7-3.4,1.6c-2,1.8-3.6,4.3-6.7,4.4c-1,0-1.8,1.8-1.5,2.8c0.1,0.3,0.2,0.7,0.1,1c-0.4,1,0,1.2,0.9,1.1
		c0.6,0,1.3,0,1.9,0c0-1-1-1.3-0.8-2.1c0.2,0,0.3-0.1,0.4-0.1c6.6-0.3,13.1,0.5,19.7,0.8c0.7,0,0.8,0.5,0.9,1
		c0.5,1.9,1.1,3.8,1.7,5.7c0.3,0.9,0.5,1.8-0.9,1.9c-0.6,0-0.7,0.4-0.5,1c0.4,1.3,0.7,2.7,2.2,3.4c1.1,0.5,2.3,0.8,3.5,1
		c1.1,0.1,1.7,0.7,2.2,1.6c0.6,1,0.9,2.5,2,2.9c1.5,0.5,2.8,2.2,4.7,1.3c0.2-0.1,0.7,0.2,1,0.5c1.7,1.4,4.3,0.6,5.9,2.3
		c0,0,0.1,0,0.2,0c1.3-0.5,2.1,0,2.9,1.1c0.3,0.5,1,0.5,1.6,0.5c2.4,0.3,3.3,2.6,5.1,3.7c0.1,0.1,0,0.5,0.1,0.7
		c0.7,2.2,1.5,4.2,1.6,6.6c0,1,0,1.6-0.3,2.6c-0.5,2.1-1.1,4.1-2.7,5.7c0,0,0,0.1,0,0.2c-0.7,2.2-3.1,3-4.1,5c0,0-0.1,0-0.2,0
		c-2.1,0.6-3,3.2-5.4,3.5c-0.1,0-0.1,0.2-0.2,0.3c-1.4,1.7-3.9,1.7-5.3,3.5c0,0-0.2,0-0.4,0c-2.1,0.3-3.5,2.5-5.8,2.4
		c-0.1,0-0.3,0.4-0.5,0.6c-0.3,0.4-0.7,0.8-1.1,0.6c-2.5-0.7-3.7,2.6-6.2,1.9c-0.5-0.1-1.4,1.4-1.9,1.3c-2.1-0.5-3.2,1-4.8,1.8
		c-1.5,0-3.1,0-4.6,0c-0.5-1.1-1.5-1-2.3-0.7c-2,0.7-4.1-1.1-6.1,0.1c0,0-0.2-0.1-0.4-0.1c-0.9-0.6-1.8-0.7-2.9-0.1
		c-0.5,0.3-1.1,0.2-1.7,0c-2-1-4.4,0.5-6.4-0.6c0,0-0.1,0-0.2,0c-2,0.8-4.2-0.7-6.3,0.3c-0.1,0-0.4-0.3-0.6-0.3
		c-2-0.3-4.1,0.5-6.1-0.2c-0.1,0-0.2,0.1-0.3,0.2c-2,0.5-4.1-0.4-6.2,0c-0.8,0.1-2-0.6-3,0.1c-0.5,0.3-1,0.2-1.5,0
		c-2.2-0.8-4.5,0.4-6.6-0.4c-0.2,0-0.5,0.2-0.7,0.3c-0.5,0.3-1,0.2-1.5,0c-2.1-0.9-4.4,0.5-6.5-0.4c0,0-0.1,0-0.2,0
		c-0.9,0.6-1.7,0.6-2.6,0c-0.5-0.3-1.1-0.3-1.7-0.1c-2,0.9-4.3-0.6-6.4,0.4c-0.2,0.1-0.5-0.3-0.9-0.4c-0.5-0.2-1-0.3-1.5,0
		c-1,0.6-2,0.6-3,0c-0.5-0.3-1-0.2-1.5,0c-2,0.9-4.3-0.6-6.3,0.4c-0.2,0.1-0.5-0.3-0.8-0.4c-0.4-0.2-0.9-0.4-1.3-0.1
		c-1.1,0.7-2.2,0.8-3.4,0c-0.5-0.3-1,0-1.6,0.2c-2,0.6-4.2,0.1-6.2,0c-2.2-0.1-4.5,0.6-6.6-0.4c0,0-0.1,0-0.2,0c-2,1-4.1-1-6.1,0.3
		c-0.1,0.1-0.5-0.3-0.8-0.5c-0.5-0.3-1.1-0.5-1.5-0.2c-2,1.4-4.1-0.5-6.4,0.1c-1,0.3-2.6-0.8-4,0.1c-0.1,0.1-0.5,0-0.7-0.2
		c-1-0.7-1.9-0.9-3-0.2c-0.5,0.3-1.1,0.3-1.6-0.1c-0.9-0.7-1.7-0.7-2.7-0.2c-0.5,0.2-1.1,0.3-1.5,0c-1-0.8-2-0.9-3.2-0.3
		c-0.5,0.2-1,0-1.5-0.2c-2-1-4.4,0-6.4-1c0,0-0.1,0-0.2,0c-2.1,0.6-4.1-1.2-6.3-0.5c0,0-0.1,0-0.2-0.1c-1.9-1.5-4.5,0.1-6.3-1.6
		c-0.1-0.1-0.4,0.1-0.5,0.1c-2.1,0-3.9-1.5-6-1.3c-0.1,0-0.2-0.2-0.3-0.3c-1.9-1.2-4.3-1.1-6-2.8c0,0-0.1,0-0.2,0
		c-1,0.1-1.5-0.6-2.1-1.3c-1.4-1.5-3.3-2.6-3.7-5c-0.2-0.8-1.4-1.6-1.1-2.9c0.1-0.5-0.1-1-0.6-1.4c-2-1.7-0.3-4.3-1.5-6.3
		c-0.1-0.1,0.3-0.5,0.4-0.8c0.4-2,0.5-4.2,2.3-5.7c0.1-0.1,0-0.4,0-0.5c0-0.8,0.4-1.4,1-1.7c0.8-0.4,1.2-1,1.4-1.7
		c0.2-1,0.9-1.5,1.5-2.1c0.9-0.8,2.2-1.5,2.3-2.7c0.2-2.2,0-4.4,0-7.1c-3.5,3.5-6.5,6.5-9.6,9.6c-0.7,0.7-1.1,0.9-2,0.1
		c-1.1-1-1.1-1.6,0-2.7c4-3.8,7.8-7.8,12-12c-1.4,0.3-2.3,0.5-3.2,0.7c-5,1.1-9.9,2.6-15.1,1.7c0-0.6,0-1.3,0-1.9
		c1.1-0.7,2.2-1.4,3.2-2c0.4-0.2,1-0.6,0.9-0.9c-0.1-1.9,1.4-1.8,2.5-2c2.6-0.6,5.2-1.2,7.9-1.8c12.9-2.9,25.8-5.8,38.6-8.7
		c1.8-0.4,2.4,0.1,2.5,1.7c0,0.4,0.2,0.7,0.3,1.1c0,1.3,0.7,1.7,2,1.7c1.8,0,3.6,0.1,5.4,0.1c4.4,0.1,4.4,0.1,4.5-4.4
		c0-0.5,0-0.9,0-1.4c0-0.5,0.3-1.1,0.9-1.1c1.4,0.1,1.3-0.9,1.3-1.8c0-0.9-0.3-2,0.8-2.3c1.3-0.3,1-1,1-1.8c0-8.3,0-16.6,0-25
		C71.8,1.5,71.6,0.7,72.1,0z M215.8,92.1c-2.3,0-4.6,0-6.8-0.9c-0.7-0.3-1.2,0.4-1.7,0.7c-3.1,2.1-6.2,4.3-9.4,6.3
		c-3.4,2.1-7,3.6-11.2,3.3c-0.9-0.1-1.6,0-2.4,0.5c-1.3,0.9-2.7,0.9-4,0.1c-2.9-1.6-5.6-1.5-8.5,0.4c2.8,0.1,5.4,0.3,8,0.5
		c5.8,0.3,11.5,0.9,17.2-1.7C203.4,98.4,210,96,215.8,92.1z M70.1,101.2c14.5,0.6,28.9,0.8,43.3,0.5c-0.8-0.2-1.4-0.7-2-1.1
		c-1.3-0.9-4.6-0.9-5.9,0c-1.9,1.3-3.4,1.3-5.3-0.1c-1.5-1-4.5-1.1-6.1-0.1c-1.9,1.3-3.5,1.2-5.3-0.1c-1.5-1-4.5-1.1-6-0.1
		c-1.9,1.3-3.6,1.3-5.5-0.2c-0.6-0.5-1.3-0.7-2.1-0.8C73.3,99.1,71.6,99.5,70.1,101.2z M35.7,93.9c-0.7,1.3-0.7,1.4-2.4,0.2
		c-1-0.6-1.5-0.9-2.1,0.5c-1,2.3-1.2,2.2-2.9,0.3c-0.5-0.5-0.9-1.2-1.6-0.3c-0.3,0.3-0.8,0.7-0.6,1.1c0.3,0.6,1,0.6,1.6,0.8
		c5.6,1.5,11.4,2.2,17.1,3c3.3,0.5,6.6,0.6,10.1,0.9c-0.5-1.2-1.3-1.5-2.3-1.5c-2.2,0-4.5-0.1-6.7-0.1
		C41.8,98.8,38.8,96.5,35.7,93.9z M109.6,40.8c0-0.1,0-0.2,0.1-0.3c-3.7-1.8-7.5-3.6-11.2-5.5c1.1,1.9,2.5,3.6,3.9,5.2
		c0.3,0.4,0.7,0.5,1.1,0.5C105.5,40.8,107.6,40.8,109.6,40.8z M101.7,40.4c-1.5-1.8-2.8-3.5-4.4-5.3c-0.7,5.6-0.5,5.9,4,5.6
		C101.4,40.7,101.4,40.6,101.7,40.4z M124.4,101.9c-3.5-2.7-6.5-2.1-9.6,0C117.9,101.9,121,101.9,124.4,101.9z M59.5,100.7
		c2.8,0.2,5.3,0.3,8,0.5C64.5,98.6,61.7,98.4,59.5,100.7z M127,101.8c2.2,0.5,6.8,0.4,7.9-0.2C132.6,99.8,129.8,99.9,127,101.8z
		 M157.9,102.2c-2.4-2.1-6.3-2-7.8,0C152.6,102.2,155.1,102.2,157.9,102.2z M146.2,102c-1.5-1.9-5.6-2-7.5,0
		C141.3,102,143.7,102,146.2,102z M169.3,102.4c-2.1-1.8-6.2-2-7.8,0C164.1,102.4,166.7,102.4,169.3,102.4z M224.1,67.9
		c2.4,2.6,3.4,5.8,4,9.6C228.4,73.1,226.7,68.9,224.1,67.9z M17.5,66.3c-0.1-0.4,0.1-1-0.5-1c-0.9,0-1.1,0.8-1.3,1.4
		c-0.2,0.6,0.4,0.5,0.8,0.5C17.1,67.4,17.5,67.2,17.5,66.3z M208.2,62.1c1.6,0.8,3.4,1.1,5.1,1.2C211.6,62.9,210,62,208.2,62.1z"/>
</g>
</svg>
