<?xml version="1.0" encoding="utf-8"?>
<!-- Generator: Adobe Illustrator 24.0.0, SVG Export Plug-In . SVG Version: 6.00 Build 0)  -->
<svg version="1.1" id="Layer_1" xmlns="http://www.w3.org/2000/svg" xmlns:xlink="http://www.w3.org/1999/xlink" x="0px" y="0px"
	 viewBox="0 0 230 91.9" style="enable-background:new 0 0 230 91.9;" xml:space="preserve">
<g>
	<path d="M94.6,18.5c1.1-0.6,2-1,3-1.2c1-0.2,1.5-0.8,1.4-1.7c0-1.2,0.5-1.4,1.6-1.6c4-0.4,7.9-1,11.9-1.5c0.6-0.1,0.9-0.3,0.8-0.9
		c0-0.1,0-0.2,0-0.2c0.1-2.9,0.1-2.9,3.1-3.1c2.1-0.2,4.1-0.4,6.2-0.7c0.9-0.1,1.3,0,1.3,1.1c0,2.2,0,2.2,2.3,1.9
		c2.5-0.3,4.9-0.7,7.4-0.6c0.3,0,0.7,0.1,1.2-0.3c-1.2,0.1-0.9-1.4-2-1.5c-0.3,0-0.3-1.7,0.1-1.7c1.1-0.1,0.6-1,0.7-1.5
		c0.1-0.7-0.2-1.4,1-1.4c0.6,0,0.4-0.7,0.4-1.1c-0.1-1.2,0.4-1.4,1.5-1.4c1.7,0.1,3.3,0.1,5,0c0.9,0,1.9,0.4,2.5-0.7
		c0.1-0.1,0.5-0.1,0.8-0.1c1.3,0,2.7,0,4,0c0.9,0,2-0.4,2.7,0.7c0.1,0.2,0.6,0.1,0.9,0.1c1.9,0,3.9,0,5.9,0c0.8,0,1.2,0.2,1.1,1.1
		c0,0.6-0.2,1.2,0.8,1.5c0.5,0.1,0.2,1,0.2,1.5c0.1,0.5-0.3,1.3,0.8,1.3c0.4,0,0.5,1.8,0.1,1.8c-1,0.1-0.6,1.4-1.6,1.5
		c-0.4,0,0.1,1,1,1.1c1.9,0.2,3.9,0.3,5.8,0.5c6.4,0.5,12.8,1,19.3,1.5c0.7,0,0.9,0.3,0.9,1c0.1,5.5,0.1,11.1,0.2,16.6
		c0,0.9-0.5,0.8-1.1,0.8c-6.2,0-12.3,0-18.5,0.1c-0.5,0-1.4-0.5-1.5,0.4c-0.1,1.2,0.5,2,1.6,2c2.7,0.1,5.5,0.2,8.2,0.3
		c0.5,0,1.1,0.1,0.9-0.7c-0.1-0.8,0.3-0.8,0.9-0.8c0.7,0,1.7,0.7,2-0.6c0-0.2,0.4-0.1,0.7-0.1c3.4,0.2,6.8,0.4,10.2,0.6
		c0.7,0,1.1,0.3,1.1,1.1c0,1.1,0.6,1.3,1.6,1.3c5.5,0,11,0.4,16.5,0.5c1,0,1.5,0.2,1.6,1.4c0.3,3.6,0.8,7.3,1.2,10.9
		c0.1,0.7,0.3,1.1,1.2,1.1c1.4-0.1,2.7,0,4.1,0c1,0,1.7-0.2,2.1-1.2c0.1-0.4,0.4-0.7,0.6-1.1c0.5-1,1.2-1.3,2.2-0.8
		c1,0.5,1.4,1.5,0.9,2.4c-0.9,1.8-1,3.7-0.6,5.6c0.1,0.6,0.3,0.8,0.9,0.8c2.9,0.1,2.9,0.1,2.9,3c0,0.7,0.2,1.2,0.8,1.6
		c0.4,0.3,0.9,0.6,1.6,1.2c-2.1,0-3.8,0.5-5.5-0.1c-1.7-0.7-4,0.4-4.8,2.2c-0.1,0.4,0,0.5,0.2,0.7c2.7,1.5,3.1,4.4,4.3,6.9
		c1.7,3.4,0.2,6.6-0.7,9.8c0,0.2-0.2,0.4-0.2,0.6c-0.7,2.9-3,4.5-5.5,5.7c-1.6,0.8-3.5,0.8-5.3,1.1c-6.1,1-12.2,1.8-18.2,3.5
		c-1.9,0.5-4,0.3-6,0.4c-6.6,0.4-13.1,0.8-19.7,0.3c-0.7,0-1.3-0.1-2-0.2c-2.3-0.4-4.5-0.2-6.8,0.4c-0.7,0.2-1.5,0.3-2.3,0.2
		c-2.7-0.3-5.4,0-8.1-0.3c-6.7-0.5-13.4,0.5-20.1,0.3c-3.6-0.1-7.2-0.8-10.8-0.2c-3.8,0.6-7.5,0.1-11.3,0C97.4,91.4,87.7,92,78,91.8
		c-4.4-0.1-8.8,0-13.2-0.3c-6.2-0.4-12.2-1.7-17.4-5.4c-2.5-1.8-5.5-2.6-8.2-4c-1.1-0.6-2.2-1.2-3.4-1.6c-3.4-1.2-5.4-3.9-6.8-7
		c-0.5-1.2-1.3-2.3-1.5-3.7c0-0.5-0.4-0.7-0.9-0.6c-0.5,0.1-1.1,0.1-1.6,0.2c-1,0.3-2,0.2-2.7-0.7c-0.7-1-1.2-2.1-0.8-3.4
		c0.2-0.7,0.8-1,1.5-1.2c0.7-0.1,1.4-0.2,2.1-0.4c0.4-0.1,1.2,0.1,1-0.7C26,62.3,26,61.6,25,61.7c-1.3,0.1-1.1-0.4-0.5-1.2
		c1.9-2.7,3.7-5.5,5.6-8.3c0.6-0.9,1.5-1.3,2.4-1.6c3.5-1.2,7.1-1.8,10.9-1.5c0.9,0.1,1.6-0.2,2.1-1c0.2-0.3,0.4-0.6,0.9-0.7
		c0.9-0.1,0.6-0.7,0.1-0.9c-0.8-0.3-0.9-1.2-1.5-1.6c0,0-0.1-0.1-0.1-0.1c0.6-1-0.2-2.1,0.1-3.1c0.4-1.3,1.1-2.2,2.7-2.1
		c1.3,0.1,2.4,0.1,3.6,1c0.9,0.7,2.4,0.6,3.7,0.8c0.4,0.1,0.8,0.1,1.2,0.2c0.8,0.1,1.6,0.3,1.2-1c-0.1-0.4,0.3-0.6,0.5-0.9
		c1.2-1,2.5-2.1,3.7-3.1c0.9-0.8,2.1-0.6,3.2-0.7c5.2-0.3,10.5-0.5,15.7-0.8c0.2,0,0.5,0,0.6-0.1c0.5-1.4,1.8-0.8,2.7-0.9
		c0.7,0,1.2,0,1.4-0.9c0.2-0.7,0.9-0.9,1.7-0.9c2.6,0,5.2,0,7.9,0c0.7,0,1-0.2,1.1-0.9c0.6-2.8,0.6-2.8-2-4.5c0,1,0.5,1.8,0.6,2.7
		c-1.3,0.2-2.5,0.2-2.8-1.4c-0.1-0.7-0.7-0.6-1.3-0.6c-3.8,0-7.6,0-11.4,0c-0.5,0-1.2,0.2-1.2-0.7c0-0.6-0.7-0.3-1-0.3
		c-5.4,0-10.9,0-16.4,0c-0.7,0-1.4,0-1.9-0.5c-0.6-0.6-1.4-0.5-2.1-0.6c-13.5-0.1-27.1-0.3-40.6-0.3c-1.6,0-3.3,0.3-5,0.5
		c-0.6,0-1,0.8-1.6,1.1c-0.5,0.3-1.1,0.5-1.5,0.3c-1.8-0.8-3.8-0.3-5.6-0.4c-1.2,0-1.6-0.6-1.8-1.6C-0.1,23.6,0,22,0.1,20.5
		c0.1-1.5,0.7-2,2.3-2c1.1,0,2.2,0,3.2,0c0.6,0,1.2,0,1.8-0.4c1.1-0.7,1.9,0.4,2.7,1c0.3,0.3,0.6,0.7,1.2,0.5
		c1.9-0.4,3.6,0.7,5.4,0.7c1.9,0,3.7,0,5.6-0.1c11.4-0.1,22.9-0.2,34.4-0.3c0.7,0,1.3,0,1.8-0.6c0.4-0.6,1.2-0.7,2-0.7
		c5.4,0,10.9,0,16.4,0c0.5,0,1.1,0.2,1.2-0.6c0-0.6,0.7-0.3,1-0.3c4,0,8,0,12,0c0.8,0,1.3-0.1,1.4-0.9c0.3-1.3,1-0.8,1.8-0.5
		c0.9,0.3,0.8,0.8,0.4,1.4C94.8,17.8,94.8,18,94.6,18.5z M207.2,85.4c-0.2-0.3-0.3-0.4-0.4-0.4c-3-1.2-5.1-3.3-6.4-6.3
		c-0.3-0.6-0.6-0.6-1.2-0.6c-1.9,0-3.9,0-5.9,0c-0.9,0-1,0.2-0.7,1c1.1,3.3,0.1,6.5-2.6,8.6c-0.2,0.1-0.5,0.2-0.5,0.6
		C195.5,88.5,201,85.4,207.2,85.4z M162.9,88c-3.1-3-3.5-4.8-2.2-9.9c-1.5,0-3,0-4.6,0c0.9,2.2,1,4.3,0,6.5c-1,2.1-2.7,3.4-4.8,4.2
		C155.2,89,159.1,89.7,162.9,88z M89.8,78.1c-1.1,0-2.1,0-3.1,0c-1-0.1-1.1,0.2-0.8,1.1c1.3,3.9-0.6,8-4.5,9.4
		c-0.3,0.1-0.6,0.2-1.1,0.4c4.7,0,9.2,0,14,0C89.5,86.6,88.3,83.7,89.8,78.1z M116.8,89.1c4.2-0.5,8.2-0.3,12.3,0
		c-2.1-1-3.7-2.4-4.5-4.5c-0.9-2.2-0.6-4.3,0.3-6.5c-0.7,0-1.4,0-2,0c-0.6,0-1.2,0-1.8,0C122.7,83.4,121.8,85.7,116.8,89.1z
		 M45.9,82.3c3.1,1.5,5.7,3.8,9.1,4.7c-2.3-2.7-2.6-5.7-1.2-8.9c-0.8,0.2-1.7-0.4-2.2,0.3c-1,1.5-1.6,1.7-2.9,0.4
		c-0.5-0.5-0.8-0.5-1.4-0.2c-0.5,0.3-0.9,0.5-0.7,1.2C47,80.8,46.6,81.6,45.9,82.3z M147.2,88.8c-1.5-0.6-2.8-1.5-3.8-2.7
		c-0.1-0.2-0.3-0.4-0.6-0.4c-1.5,0-3,0-4.5,0c-0.2,0-0.4,0.1-0.5,0.3c-1,1.4-2.3,2.3-3.8,3C138.4,89.2,142.8,88.4,147.2,88.8z
		 M77.4,89.1c-1-0.4-1.8-0.6-2.3-1.1c-1.5-1.6-3.3-1.4-5.2-1.4c-0.6,0-1.3,0.1-1.9,0c-2-0.4-2.8,1.3-4.1,2.1
		C68.3,88.8,72.7,89.4,77.4,89.1z M182.4,88.7c-1.6-1.7-3.5-2.3-5.8-2.3c-2.4,0-4.2,0.6-5.7,2.4C174.7,88.9,178.5,89.1,182.4,88.7z
		 M112.9,89.4c-1.5-0.5-2.8-1.1-3.9-2.2c-0.6-0.6-6.5-0.6-7.1,0c-0.7,0.6-1.5,1.1-2.3,1.7C104.1,89,108.5,88.7,112.9,89.4z
		 M4.8,24.4c0.6-0.1,1.5,0.3,1.9-0.2c0.6-0.8,0.5-1.8,0.2-2.7C6.7,20.6,6,21,5.5,20.9c-0.4,0-0.8,0-1.2,0c-1.8,0-1.9,0.1-1.9,2
		c0,1,0.2,1.8,1.6,1.6C4.2,24.4,4.4,24.4,4.8,24.4z M55.8,44.6c0.7,0,1.2,0,1.7,0c0.4,0,1.1,0.2,1.1-0.6c0-0.6-0.5-0.8-1-0.8
		c-1.7-0.2-3.5-0.4-5.2-0.7c-0.5-0.1-0.7,0.1-0.6,0.6c0.1,0.5-0.5,1.5,0.5,1.4C53.4,44.3,54.7,44.8,55.8,44.6z M218.9,72.9
		c-0.1-0.3-0.1-0.7-0.2-1.1c-0.6-2.4-0.7-2.4-2.7-0.9c-0.3,0.3-0.7,0.5-1.1,0.8c-0.3,0.2-0.4,0.4-0.3,0.8c0.1,0.4,0.3,0.5,0.7,0.6
		c1,0.1,1.9,0.3,2.9,0.4C218.7,73.7,218.9,73.5,218.9,72.9z M214.5,75.7c-0.4,0-0.8,0.3-0.4,1c0.4,0.9,0.9,1.7,1.4,2.6
		c0.2,0.5,0.5,0.6,0.9,0.2c0.7-0.7,1.3-1.5,1.8-2.5c0.2-0.5,0.2-0.8-0.4-0.9C216.8,76,215.8,75.9,214.5,75.7z M211.2,81.6
		c2.3,0,2.5-0.2,1.5-2c-0.4-0.7-0.4-1.8-1.4-1.9c-1,0-1,1.1-1.4,1.8C208.8,81.4,208.9,81.6,211.2,81.6z M86.1,37.2
		c0-0.1,0-0.2,0-0.4c-0.2-0.5,0.5-1.6-0.5-1.5c-0.9,0-0.4,1-0.4,1.5c0,1-0.2,1.6-1.3,1.4c-0.3-0.1-0.7,0-1.1,0
		c-0.3,0-0.5,0.1-0.5,0.5c0,0.4,0.2,0.5,0.5,0.5c0.5,0,1,0,1.5,0C86.1,39.2,86.1,39.2,86.1,37.2z M90.5,39.1c0.5,0,1,0,1.5,0
		c0.3,0,0.4-0.2,0.4-0.5c0-0.3,0-0.6-0.4-0.5c-2,0.3-3-0.4-2.6-2.5c0-0.3-0.2-0.4-0.5-0.4c-0.3,0-0.4,0.2-0.4,0.5c0,0.5,0,1,0,1.5
		C88.5,39.2,88.5,39.2,90.5,39.1z M86.1,43.7c0-2.1,0-2.1-2-2.1c-0.1,0-0.2,0-0.2,0c-0.6,0.2-1.6-0.4-1.6,0.4c0,0.9,1.1,0.4,1.6,0.4
		c0.8,0,1.3,0.1,1.2,1.1c0,0.6-0.5,1.7,0.4,1.7C86.7,45.4,85.8,44.2,86.1,43.7z M10.9,22.8C10.9,22.8,10.9,22.8,10.9,22.8
		c0-0.4,0-0.7,0-1.1c0-0.4,0-0.8-0.7-0.8c-0.6,0-0.8,0.3-0.9,0.8c-0.1,0.7-0.1,1.5,0.1,2.2c0.1,0.6,0.5,0.5,0.9,0.5
		c0.5,0,0.6-0.3,0.6-0.7C10.9,23.4,10.9,23.1,10.9,22.8z M90.4,41.6c-2.2,0-1.8-0.3-1.9,1.9c0,0.4,0,0.8,0,1.2c0,0.3,0,0.7,0.5,0.7
		c0.4,0,0.4-0.3,0.4-0.6c0-0.7-0.3-1.5,0.2-2c0.5-0.6,1.4-0.1,2.1-0.2c0,0,0.1,0,0.1,0c0.3,0,0.5-0.1,0.5-0.4s-0.2-0.4-0.4-0.4
		C91.4,41.6,90.9,41.6,90.4,41.6z M36.3,72.8c0.8,1.4,2,2.2,3.5,2.6c0.1-0.5,0.3-1.1-0.2-1.4C38.5,73.5,37.4,73.2,36.3,72.8z
		 M69.8,82c-0.3,0-0.7,0-1,0c-0.3,0-0.6-0.1-0.6,0.3c0,0.3,0.3,0.3,0.6,0.3c0.6,0.1,1.2,0.2,1.8,0.3c0.3,0,0.8,0.4,0.8-0.3
		c0-0.5-0.2-0.6-0.7-0.6C70.4,82,70.1,82,69.8,82z M205,78c0.2,0.7,0.7,1,1,1.4c0.5,0.5,0.8,0.5,1.1-0.2c0.6-1.3,0.7-1.3-0.8-1.3
		C205.9,78,205.5,78,205,78z M44,81.5c-0.3-1.8-0.7-1.9-2.9-1.3C42.1,80.6,43,81,44,81.5z M140.3,81c-0.3,0.1-1.1-0.3-1.1,0.3
		c0,0.6,0.8,0.4,1.2,0.5c0.3,0.1,0.6,0.1,0.9,0.1c0.3,0,0.5,0,0.5-0.3c0-0.3,0-0.6-0.4-0.7C141.1,80.9,140.7,81,140.3,81z M174.6,82
		c1.1,0.5,2,0.5,2.8,0.7c0.3,0,0.6,0.1,0.6-0.3c0-0.3-0.1-0.5-0.5-0.5C176.7,81.9,175.9,81.7,174.6,82z M103.8,82.3
		c1,0.5,1.8,0.5,2.5,0.6c0.3,0,0.5,0,0.5-0.4s-0.2-0.4-0.5-0.4C105.6,82.1,104.9,81.9,103.8,82.3z"/>
</g>
</svg>
