<?xml version="1.0" encoding="utf-8"?>
<!-- Generator: Adobe Illustrator 24.0.0, SVG Export Plug-In . SVG Version: 6.00 Build 0)  -->
<svg version="1.1" id="Layer_1" xmlns="http://www.w3.org/2000/svg" xmlns:xlink="http://www.w3.org/1999/xlink" x="0px" y="0px"
	 viewBox="0 0 230 89.3" style="enable-background:new 0 0 230 89.3;" xml:space="preserve">
<g>
	<path d="M0,28.7c1.8-0.2,3.5-0.1,5.3-0.1c26.3-0.2,52.6-0.4,78.9-0.6c0.6,0,0.9-0.1,1.2-0.8c0.3-0.8,1-1.2,1.9-1.2c1.7,0,3.4,0,5,0
		c0.5,0,0.9-0.1,1.2-0.6c1.4-1.9,3.3-3.1,5.6-3.6c0.2,0,0.5,0,0.5-0.2c0.1-1,0.9-0.9,1.5-1.1c2.2-0.5,4.3-1,6.5-1.5
		c0.4-0.1,0.8-0.2,1.1,0.3c0.2,0.4,0.5,0.2,0.7,0.1c1-0.2,2-0.5,3.1-0.7c0.1,0,0.4-0.1,0.4-0.1c0.6-1,1.7-0.8,2.6-0.8
		c0.4,0,0.6,0,0.6-0.5c0.1-0.6,0.5-0.9,1.1-0.9c0.6,0,1.1,0,1.7,0c0.8,0,1.3,0.2,1.4,1c0.1,0.8,0.8,0.3,1.2,0.4
		c0.3,0.1,0.7,0.2,0.8-0.4c0.1-0.8,0.6-1,1.3-1c0.5,0,1.1,0,1.6,0c0.9,0,1.4,0.3,1.3,1.4c0.4-0.4,0.6-0.9,1.2-0.9
		c0.2,0,0.2-0.3,0.2-0.4c-0.2-2,0.4-3.9,0.4-5.8c0-3.2,0.1-6.5,0.1-9.7c0-0.2,0-0.5,0-0.7c0-0.2,0.1-0.3,0.3-0.3
		c0.1,0,0.2,0.1,0.2,0.2c0,0.2,0,0.5,0,0.7c0.1,3.7,0.1,7.5,0.2,11.2c0.1,1.4,0.3,2.8,0.3,4.2c0,0.3,0.1,0.5,0.4,0.5
		c0.3,0,0.5,0.2,0.7-0.3c0.3-0.6,0.3-1.3,0.3-1.9c0-1.7,0.3-2,2-2c5.6,0,11.2,0,16.8,0c1.7,0,2,0.3,2,2c0,0.3,0,0.6,0,1.1
		c2-1.1,4-1.4,6.2-1.2c1.2,0.1,2.3,0.4,3.4,0.9c0.6,0.3,1.3,0.7,1.6,1.4c0.3,0.9,0.9,0.9,1.5,0.8c1.3-0.2,2.2,0.4,3.2,1
		c0.6,0.4,0.6,1,0.7,1.6c0.4,2.7,0.7,5.3,1.1,8c0.4,2.6,0.7,5.1,1.1,7.7c0,0.3,0.1,0.6,0.1,1c0,1.5-0.8,2.4-2.4,2.4
		c-2.7,0-5.3,0-8,0c-0.2,0-0.4,0-0.6,0c-0.2,0-0.5-0.1-0.5,0.2c0,0.2,0.3,0.2,0.4,0.2c3.8,0,7.7,0,11.5,0c0.5,0,0.6-0.2,0.6-0.7
		c0.1-2.4,0.1-2.4,2.5-2.4c3.6,0,7.3,0,10.9,0c1.3,0,1.5,0.1,1.7,1.5c0,0.4,0.1,0.5,0.5,0.5c2.7,0,5.4,0,8.1,0
		c0.8-0.8,1.7-0.6,2.5,0c0.1,0.1,0.4,0,0.6,0c3.9,0,7.8,0,11.7,0c0.7,0,1,0.1,0.9,0.9c-0.1,1,0,2.1,0,3.1c0.3,0.1,0.3-0.2,0.4-0.3
		c1.4-2.1,3.7-3.2,6.2-2.7c2.4,0.5,4.1,2,4.6,4.5c0.6,2.6-0.3,4.7-2.4,6.2c-0.5,0.4-0.6,0.6-0.1,1c0.8,0.7,1.5,1.4,2.2,2.2
		c0.3,0.3,1,0.5,0.6,1.3c-0.1,0.2,0.3,0.3,0.6,0.3c0.7,0.1,1,0.5,0.8,1.2c-0.1,0.6,0.4,1.3-0.3,1.9c-0.1,0.1,0.2,0.3,0.4,0.4
		c1.8,1.1,3.6,2.1,5.5,3.1c0.6,0.3,0.6,0.5,0.1,0.9c-0.9,0.8-1.7,1.7-2.6,2.5c-0.3,0.3-0.5,0.5-0.8,0.1c-0.2-0.2-0.4-0.3-0.6,0
		c-0.2,0.2,0,0.4,0.1,0.5c0.1,0.2,0.3,0.3,0.6,0.4c0.6,0.2,0.9,0.6,0.8,1.3c0,0.4,0.1,0.6,0.3,0.9c0.7,1.5,0.7,3.2,1.2,4.8
		c0.2,0.6-0.5,1-0.6,1.5c-0.3,1.2-0.8,2.3-1.5,3.3c-0.2,0.3-0.3,0.5-0.3,0.8c0,0.4-0.3,0.7-0.6,0.8c-1.6,0.7-3,1.7-4.5,2.6
		c-1.5,0.8-3.1,0.4-4.5,1.3c-0.5,0.3-1.2,0.3-1.6,1c-0.2,0.3-0.5,0.3-0.8,0.3c-1.8,0-3.3,0.7-4.8,1.6c-0.2,0.1-0.4,0.3-0.6,0.3
		c-1.5-0.2-2.8,0.8-4.2,1c-0.3,0.1-0.4,0.3-0.5,0.4c-0.3,0.3-0.7,0.6-1.1,0.4c-1.5-0.4-3,0-4.5-0.1c-0.3,0-0.4,0.2-0.6,0.3
		c-0.3,0.3-0.7,0.4-1,0.2c-1-0.8-2.1-0.4-3.1-0.5c-0.7,0-1.4-0.1-2,0.4c-0.2,0.2-0.6,0.1-0.9,0c-1.7-0.7-3.4-0.6-5.1,0
		c-0.3,0.1-0.6,0.1-0.9,0c-1.7-0.7-3.3-0.6-5,0c-0.3,0.1-0.5,0.1-0.8,0c-1.7-0.6-3.4-0.5-5.1,0c-0.2,0.1-0.4,0.1-0.6,0.1
		c-1.2-0.7-2.6-0.5-3.8-0.3c-2.1,0.3-4.1-0.3-6.1-0.1c-0.4,0-0.8,0-1.2,0.3c-0.2,0.2-0.5,0.2-0.8,0.1c-1.7-0.5-3.5-0.5-5.2,0
		c-0.1,0-0.3,0.1-0.4,0c-1.3-0.7-2.8-0.5-4-0.3c-2,0.3-4-0.3-6-0.1c-0.4,0.1-0.8,0-1.1,0.3c-0.3,0.2-0.6,0.2-0.9,0.1
		c-1.7-0.5-3.5-0.6-5.2,0c-0.2,0.1-0.5,0.1-0.7,0c-1.7-0.6-3.4-0.6-5.1,0c-0.2,0.1-0.5,0.1-0.7,0c-1.7-0.6-3.5-0.6-5.2,0
		c-0.2,0.1-0.5,0.1-0.7,0c-1.4-0.8-2.9-0.2-4.3-0.4c-0.3,0-0.4,0.2-0.6,0.3c-0.3,0.2-0.7,0.3-1,0.1c-1.4-0.7-3-0.4-4.4-0.3
		c-0.8,0.1-1.4,0.1-2.2,0c-1.4-0.1-2.9-0.5-4.3,0.3c-0.3,0.2-0.6,0.1-0.9,0c-1.7-0.6-3.4-0.6-5.1,0c-0.3,0.1-0.5,0.1-0.8,0
		c-1.7-0.6-3.4-0.6-5.1,0c-0.2,0.1-0.4,0.1-0.5,0.1c-1.1-0.6-2.3-0.4-3.4-0.3c-2.1,0.4-4.1-0.4-6.1-0.7c-0.6-0.1-1.3-0.4-1.9,0
		c-0.3,0.1-0.6,0-0.8-0.2c-1.5-1.1-3.2-1.5-5-1.8c-0.2,0-0.4-0.1-0.6-0.2c-1.1-1.1-2.6-1.3-3.8-2.1c-0.3-0.2-0.5-0.1-0.8-0.1
		c-0.4,0.1-0.8-0.1-1-0.4c-1.1-1.4-2.8-1.7-4.3-2.2c-0.3-0.1-0.6,0-0.8-0.3c-1-1.2-2.7-1.6-3.8-2.6c-0.2-0.2-0.4-0.1-0.6-0.1
		c-0.4,0-0.8-0.2-0.9-0.5c-0.3-1.2-1.3-1.9-1.8-3c-0.4-0.9-0.5-2-1.1-2.8c-0.2-0.3-0.1-0.6,0.1-0.9c0.4-0.6,0.3-1.2,0.4-1.8
		c0.1-0.5-0.3-0.4-0.5-0.5c-1.2-0.3-2.4-0.6-3.6-0.9c-0.5-0.1-0.7-0.3-0.5-0.8c1.8-6.6,7.4-10.9,14.2-10.9c3.3,0,6.7,0,10,0
		c0.3,0,0.6,0,1,0c-0.1-0.5-0.3-0.8-0.9-0.8c-0.5,0-1,0-1.5,0c-0.7,0-1.3,0.1-1.1-0.9c0.1-0.4-0.2-0.4-0.5-0.4c-0.6,0-1.3,0-1.9,0
		c-0.3,0-0.5-0.1-0.5-0.5c0-0.3,0.3-0.4,0.5-0.4c0.5,0,1,0,1.5,0c0.4,0,0.8,0.1,1.1-0.4c0.3-0.5,0.8-0.3,1.2-0.3
		c0.9,0.1,1.3-0.2,1.7-1c0.4-1,1-1.8,1.9-2.5c0.3-0.2,0.6-0.5,0.9-0.3c0.3,0.2,0.1,0.6,0.1,0.9c0,0.2-0.1,0.4-0.2,0.6
		c-0.1,0.2-0.3,0.5,0.1,0.6c0.3,0.1,0.4-0.2,0.5-0.4c0.2-0.6,0.3-1.2,0.4-1.7c0.4-1.6,0.9-1.9,2.5-1.9c2,0,4,0,6,0
		c0.6,0,1-0.1,0.9-0.8c-0.1-0.5,0.1-1,0.4-1.5c0.4-0.8,1.2-1.2,2.1-0.9c1,0.3,2,0.7,2.6,1.7c0.3,0.4,0.4,0.4,0.8,0.1
		c0.9-0.6,1.8-1.1,2.8-1.7c-0.6-0.1-0.6-0.5-0.6-0.8c0.1-1.5-0.9-2.3-1.9-3.2c-0.1-0.1-0.4-0.1-0.6-0.1c-2.5-0.5-4.6-1.7-6-3.9
		C93,35.2,92.7,35,92.1,35c-1.5,0-3.1,0-4.6,0c-1.1,0-2-0.4-2.3-1.5c-0.2-0.6-0.6-0.4-0.9-0.4C77.4,33,70.6,33,63.8,32.9
		c-21.1-0.2-42.2-0.3-63.3-0.5c-0.1,0-0.3,0-0.4,0C0,31,0,29.8,0,28.7z M121.3,87.2c0,0.1,0,0.2,0,0.2c0.7,0,1.4,0,2.1,0
		c0.8,0,1.7,0.2,2.5-0.3c0.3-0.2,0.6-0.1,0.8,0.1c0.6,0.5,0.8,0.1,0.9-0.4c0.2-0.7,0.4-1.3,0.6-2c0.1-0.4,0.3-0.8,0.9-0.9
		c0.6,0,0.8,0.4,1,0.9c0.2,0.7,0.4,1.4,0.7,2.1c0.1,0.2,0.2,0.6,0.4,0.4c0.8-0.6,1.4,0,2.1,0c1.5,0,3,0.4,4.4-0.3
		c0.2-0.1,0.5,0,0.7,0c0.3,0.1,0.7,0.7,0.9-0.1c0.2-0.5,0.5-1-0.2-1.4c-2.2-1.4-3.8-3.4-4.7-5.8c-0.2-0.5-0.4-0.7-1-0.7
		c-1.1,0.1-2.3,0.1-3.4,0c-0.6,0-0.8,0.2-1,0.7c-1.2,3.2-3.5,5.5-6.6,6.9C122.2,86.9,121.7,87.1,121.3,87.2z M114,87.5
		c-0.1-0.3-0.1-0.3-0.2-0.3c-0.3-0.1-0.5-0.2-0.7-0.3c-2.7-1.2-5-2.9-6.1-5.7c-0.8-1.9-1.9-2.2-3.6-2c-0.5,0.1-0.7,0.2-0.9,0.6
		c-0.8,2.1-2,3.8-3.7,5.2c-0.8,0.7-1.7,1.2-2.7,1.7c-0.3,0.1-0.6,0.2-0.4,0.6c0.2,0.4,0.4,0.1,0.7,0c0.2-0.1,0.5-0.3,0.8-0.2
		c1.3,0.7,2.7,0.3,4,0.4c0.4,0,0.8,0,1.1-0.3c0.3-0.3,0.8-0.2,1.1,0c0.5,0.4,0.7,0.1,0.8-0.4c0.2-0.7,0.4-1.4,0.6-2.1
		c0.1-0.4,0.4-0.7,0.9-0.7c0.5,0,0.8,0.3,0.9,0.8c0.2,0.7,0.5,1.4,0.7,2.1c0.1,0.5,0.3,0.8,0.8,0.4c0.3-0.3,0.7-0.2,1.1,0
		C110.8,87.8,112.3,87.4,114,87.5z M163.6,85.3c0.1-0.3-0.1-0.4-0.3-0.6c-1.6-1.4-2.8-3.1-3.4-5.1c-0.3-0.7-0.8-0.4-1.3-0.4
		c-0.4,0-0.9-0.2-1.1,0.5c-0.5,1.5-1.2,3-2.4,4c-1.3,1-1.2,2.1-0.6,3.3c0,0,0,0.1,0,0.1c0.1,0.4,0.3,0.5,0.6,0.3
		c0.3-0.2,0.6-0.4,0.9-0.2c1.4,0.7,2.8,0.2,4.2,0.4c0.2,0,0.5,0,0.7-0.1c0.5-0.3,0.9-0.4,1.4,0c0.2,0.1,0.5,0.3,0.6-0.1
		C163.2,86.6,163.4,85.9,163.6,85.3z M183.9,79.2c-0.8,0-0.8,0-1,0.7c-0.9,2.4-2.4,4.4-4.6,5.7c-0.8,0.5-0.4,1.1-0.2,1.6
		c0.3,0.7,0.6,0.1,0.9,0c0.2,0,0.4-0.1,0.6,0c1.4,0.7,2.8,0.2,4.2,0.4c0.3,0,0.5,0,0.8-0.2c0.4-0.3,0.8-0.3,1.3,0
		c0.4,0.3,0.6,0.1,0.8-0.3c0.2-0.8,0.4-1.6,0.7-2.3c0.2-0.4,0.1-0.6-0.2-0.9c-1.1-1.2-1.9-2.5-2.4-4C184.5,79.3,184.3,79,183.9,79.2
		z M218,81.8c-2.4-0.2-4.6-0.9-6.4-2.6c-0.1-0.1-0.3-0.3-0.4-0.2c-0.9,0.4-1.8,0.1-2.6,0.2c-0.5,0-0.7,0.2-0.8,0.6
		c-0.5,1.4-1.2,2.6-2.2,3.7c-1,1.2-2.3,2.2-3.7,2.9c-0.3,0.1-0.5,0.3-0.2,0.6c0.2,0.4,0.4,0.2,0.6,0c0.2-0.2,0.5-0.4,0.8-0.4
		c1.1,0.3,2-0.3,3-0.6c0.6-0.2,1.3-0.2,1.7-0.7c0.3-0.4,0.7-0.6,1.3-0.5c0.5,0.1,0.6-0.1,0.6-0.5c-0.1-0.7-0.1-1.4-0.1-2.1
		c0-0.5,0.1-1,0.6-1.2c0.6-0.2,0.9,0.1,1.2,0.5c0.4,0.5,0.8,1,1.1,1.5c0.3,0.5,0.6,1,1.1,0.2c0.1-0.2,0.4-0.4,0.7-0.3
		C215.6,83,216.7,82.1,218,81.8z M73.4,81.3c-0.1,0.4,0.1,0.5,0.5,0.5c0.4-0.1,0.7,0,1,0.3c1.3,1.2,2.9,1.9,4.7,2
		c0.3,0,0.6,0.1,0.8,0.4c0.2,0.2,0.4,0.7,0.7,0.2c0.3-0.4,1.2-0.7,0.5-1.5c-0.7-0.8-1.3-1.7-1.7-2.7c-0.3-0.7-0.4-1.6-1.5-1.5
		c-0.1,0-0.3-0.2-0.4-0.3c-0.7-0.5-1.4-0.9-2-1.4c-0.7-0.7-1.3-0.8-2.1,0c-0.3,0.3-0.4,0.4-0.2,0.8c0.2,0.3,0.1,0.7,0,1
		C73.6,80,73.5,80.7,73.4,81.3z M179.1,37.9c-1.7,0-3.5,0-5.2,0c-1.4,0-1.4,0-1.3,1.4c0,0.4,0.1,0.6,0.6,0.6c2.7,0,5.4,0,8.2,0
		c0.4,0,0.7-0.1,0.6-0.5c-0.1-0.4,0.2-0.5,0.5-0.5c0.8,0,1.5,0,2.3,0c0.4,0,0.8,0.1,0.8-0.5c0-0.6-0.4-0.5-0.8-0.5
		C182.9,37.9,181,37.9,179.1,37.9z M225,75.6c0-0.8-0.7-1.5-1.5-1.5c-0.9,0-1.5,0.6-1.5,1.5c0,0.8,0.7,1.5,1.5,1.5
		C224.2,77.2,225,76.5,225,75.6z M217.9,77.3c-0.9,0-1.5,0.6-1.5,1.5c0,0.8,0.7,1.5,1.5,1.5c0.8,0,1.5-0.7,1.5-1.5
		C219.4,78,218.7,77.3,217.9,77.3z M221.9,69.3c0,0.7,0.6,1.4,1.2,1.4c0.5,0,1.9-1.1,1.9-1.6c0-0.7-0.7-1.4-1.5-1.4
		C222.8,67.7,221.9,68.7,221.9,69.3z M189.4,85.7c0.1,0.5,0.3,0.8,0.3,1.1c0.1,0.6,0.3,0.8,0.9,0.4c0.3-0.3,0.7-0.2,1.1,0
		c0.4,0.3,0.8,0.3,1.3,0.1C191.8,87,190.6,86.5,189.4,85.7z M67.7,78.8c0.4,0.4,0.6,0.4,0.9,0.3c0.3-0.1,0.7,0,0.9,0.3
		c0.5,1,0.9,0.5,1.4,0c0.2-0.3,0.5-0.4,0.6-0.8C70.3,79,69.1,79,67.7,78.8z M225.9,72.5c0-0.4-0.2-0.6-0.6-0.7
		c-0.5-0.1-0.7,0.2-0.8,0.6c0,0.4,0.2,0.7,0.6,0.7C225.6,73.2,225.9,73,225.9,72.5z M214.2,79.5c0.4,0,0.7-0.3,0.7-0.6
		c0-0.4-0.2-0.7-0.7-0.8c-0.5,0-0.7,0.2-0.8,0.7C213.5,79.2,213.8,79.4,214.2,79.5z M151.3,86.5c-0.4,0.2-0.7,0.3-1.1,0.5
		c0.2,0.3,0.4,0.5,0.8,0.4C151.3,87.3,151.3,86.9,151.3,86.5z"/>
</g>
</svg>
