<?xml version="1.0" encoding="utf-8"?>
<!-- Generator: Adobe Illustrator 24.0.0, SVG Export Plug-In . SVG Version: 6.00 Build 0)  -->
<svg version="1.1" id="Layer_1" xmlns="http://www.w3.org/2000/svg" xmlns:xlink="http://www.w3.org/1999/xlink" x="0px" y="0px"
	 viewBox="0 0 230 78.3" style="enable-background:new 0 0 230 78.3;" xml:space="preserve">
<g>
	<path d="M139.6,6c-0.7-0.6-0.6-1.4-0.2-2c0.4-0.6,1.1-0.9,1.8-0.1c0.2,0.2,0.5,0.2,0.7-0.1c0.5-0.5,1-0.3,1.6,0c0-0.3,0-0.7,0-1.1
		c-0.1-0.6,0.1-1,0.8-0.9c0.7,0.1,0.6-0.5,0.5-0.8C144.6,0.2,145,0,145.8,0c5.5,0,11.1,0,16.6,0c0.8,0,1.2,0.2,1.1,1.1
		c-0.1,0.5,0,0.8,0.6,0.7c0.3,0,0.5,0.2,0.5,0.5c0,0.2,0,0.3,0,0.5c-0.5,1.5,0.8,2.2,1.5,3.2c0.1,0.1,0.3,0.2,0.4,0.1
		c2.3-0.5,4.7-0.3,7-0.2c2,0.1,3.9,0.9,5.8,1.4c2.1,0.5,2.1,0.5,2.1,2.7c0,4.3,0,8.5,0,12.8c0,0.8-0.2,1-0.9,0.9c-2.3,0-4.7,0-7,0
		c-0.6,0-0.9,0.2-0.8,0.8c0.1,1.6,0,3.2,0.1,4.9c1-1.2,2.3-1.2,3.7-1.2c1.5,0,2.9-0.1,4.4-0.1c0.6,0,0.9-0.2,1.1-0.8
		c0.4-1.4,0.9-1.6,2.4-1.6c1.8,0,3.6,0,5.3,0c1,0,1.4,0.3,1.4,1.3c0,0.6,0.2,0.8,0.8,0.8c8.7-0.2,17.5-0.4,26.3-0.6
		c0.4,0,0.5-0.1,0.5-0.5c0-0.5,0.2-1,0.1-1.5c-0.1-0.9,0.3-1.1,1.1-1c3.1,0.3,6.2,0.6,9.2,0.9c0.8,0.1,1.1,0.2,1,1.1
		c-0.5,5.9-1,11.9-1.4,17.8c-0.2,2.8-0.5,5.5-0.7,8.3c0,0.6-0.2,0.8-0.9,0.8c-1.6-0.2-3.2-0.2-4.8-0.3c-0.7-0.1-0.9,0.1-0.6,0.8
		c0.1,0.2,0.3,0.5,0.2,0.8c-0.5-0.1-1-0.2-1.5-0.2c-0.6,0-0.9-0.3-1.1-0.9c-0.1-0.5-1.9-1.1-2.4-0.8c-0.1,0.1-0.2,0.3-0.2,0.4
		c-0.1,0.6-0.1,1.2-0.2,1.8c0,0.4,0,0.8,0,1.3c0.6-0.3,1.2-0.5,1.7,0.2c0.4,0.5,0.2,1-0.1,1.5c-0.1,0.1-0.2,0.3-0.3,0.4
		c-0.2,0.2-0.8-0.1-0.7,0.4c0.1,0.5,0.3,1.1,0.5,1.6c0.1,0.2,0.3,0.2,0.5,0.1c0.7-0.2,1.2,0,1.4,0.7c0.2,0.8-0.3,1.4-0.9,1.6
		c-1,0.3-0.4,1.1-0.7,1.6c-0.2,0.5,0.3,0.5,0.6,0.6c0.6,0.3,0.7,1.2,0.2,1.7c-0.4,0.3-0.8,0.5-1.3,0.5c-0.6,0.1-0.8,0.7-1,1.1
		c-0.2,0.4,0.4,0.4,0.6,0.5c0.6,0.4,0.7,1,0.3,1.5c-0.4,0.5-1.5,0.7-1.8,0.2c-0.4-0.5-0.6-0.3-0.8,0.1c-0.3,0.4-0.6,0.8-0.8,1.1
		c-0.2,0.2-0.3,0.4,0,0.6c0.4,0.4,0.7,0.8,0.3,1.4c-0.5,0.6-1.1,0.6-1.6,0.3c-0.9-0.5-1.7,0.1-2.5,0.2c-0.3,0.1-0.4,0.3-0.3,0.5
		c0.1,0.5,0,0.9-0.6,1.1c-0.6,0.2-1,0-1.4-0.4c-0.1-0.1-0.2-0.2-0.3-0.3c-0.3-0.4-0.7-0.1-1.1-0.1c-0.3,0-0.3,0.3-0.3,0.5
		c0.1,0.5-0.1,0.9-0.7,1.1c-0.6,0.2-1.1,0-1.3-0.5c-0.4-0.7-1-0.6-1.6-0.5c-0.4,0.1-0.5,0.2-0.6,0.6c-0.2,0.9-1.1,1.1-1.7,0.5
		c-0.8-0.7-1.6-0.6-2.1,0.3c-0.3,0.6-1,0.7-1.6,0.3c-0.9-0.7-1.2-0.6-1.7,0.4c-0.4,0.8-1.4,0.8-1.9-0.1c-0.3-0.6-0.8-0.6-1.3-0.6
		c-0.3,0-0.5,0.1-0.6,0.5c-0.4,0.9-1.2,1-1.8,0.2c-0.1-0.2-0.2-0.3-0.3-0.5c-0.3-0.3-0.7-0.4-0.9,0.2c-0.2,0.5-0.3,0.8-0.9,0.9
		c-0.6,0.1-0.9-0.3-1.1-0.7c-0.7-1-1.5-0.9-2,0.2c-0.2,0.3-0.4,0.5-0.8,0.6c-0.5,0-0.9-0.1-1.1-0.6c-0.2-0.8-0.8-0.8-1.4-0.8
		c-0.4,0-0.7,0-0.7,0.5c-0.1,0.5-0.3,0.9-0.9,0.9c-0.6,0-0.9-0.2-1.2-0.8c0-0.1-0.1-0.2-0.1-0.3c-0.1-0.3-0.3-0.5-0.6-0.4
		c-0.3,0-0.4,0.2-0.5,0.5c-0.1,0.4-0.3,0.8-0.8,0.8c-0.5,0-0.9-0.2-1.1-0.7c-0.5-0.9-1.7-0.9-2.2-0.1c-0.4,0.7-1.2,0.7-1.7,0.1
		c-0.8-0.9-0.9-0.9-1.6,0c-0.4,0.6-1.2,0.6-1.7,0c-0.7-0.8-1.4-0.9-2.1,0c-0.4,0.5-1.1,0.5-1.5,0c-0.8-0.8-1.4-0.8-2.1,0.1
		c-0.4,0.5-1.1,0.5-1.6,0c-0.8-0.9-1.1-0.9-1.8,0c-0.4,0.5-1.1,0.5-1.6,0c-0.8-0.9-1.4-0.9-2.2,0c-0.5,0.5-1.1,0.4-1.5-0.1
		c-0.7-0.7-1.4-0.7-2,0.1c-0.4,0.5-1.1,0.5-1.6,0c-0.7-0.8-1-0.8-1.7,0c-0.4,0.5-1.1,0.5-1.6-0.1c-0.8-0.8-1.4-0.7-1.9,0.2
		c-0.2,0.3-0.4,0.5-0.8,0.5c-0.5,0-0.8-0.2-1.1-0.6c-0.6-1-1.8-1-2.3,0c-0.4,0.7-1.2,0.7-1.8,0c-0.7-1-1.3-1-2-0.1
		c-0.4,0.5-1.1,0.5-1.6-0.1c-0.7-0.8-1-0.8-1.6,0.1c-0.4,0.6-1.2,0.5-1.7,0c-0.7-0.9-1.2-0.9-1.8,0.1c-0.4,0.6-1.2,0.5-1.7-0.1
		c-0.7-0.9-1.5-0.8-2.2,0.1c-0.4,0.6-1.2,0.6-1.7-0.1c-0.7-0.8-1.5-0.8-2.1,0c-0.4,0.5-1.1,0.5-1.6-0.1c-0.7-0.8-1.3-0.8-1.9,0.1
		c-0.4,0.5-1.1,0.5-1.6,0c-0.8-0.8-1.1-0.8-1.9-0.2c-0.5,0.4-0.9,0.3-1.4,0c-0.9-0.7-1.9-0.6-2.8,0.2c-0.5,0.4-1,0.4-1.5-0.1
		c-0.7-0.7-1.5-0.6-2,0.1c-0.4,0.6-1.1,0.6-1.7,0c-0.6-0.7-1.2-0.8-2-0.1c-0.5,0.5-1,0.3-1.4,0c-0.9-0.7-1.5-0.7-2,0.3
		c-0.4,0.7-1.3,0.6-1.8,0c-0.7-0.9-1.4-0.9-2.1,0c-0.4,0.5-1.2,0.5-1.7-0.1c-0.7-0.8-2-0.8-2.7,0.1c-0.5,0.6-1.3,0.5-1.7-0.2
		c-0.7-1.1-2.3-1.2-3.1-0.3c-0.5,0.6-1.5,0.5-1.7-0.3c-0.2-0.6-0.3-0.9-1-1c-0.5-0.1-0.9,0-1.3,0.4c-0.4,0.5-1.2,0.3-1.6-0.4
		c-0.5-1-1.4-1.1-2.1-0.3c-0.5,0.5-1.3,0.4-1.7-0.3c-0.6-1.1-0.8-1.1-1.8-0.4c-0.5,0.4-1.2,0.2-1.6-0.5c-0.6-1.1-1.3-1.3-2.5-0.7
		c-0.6,0.3-1.1,0.1-1.4-0.5c-0.5-1.1-1.1-1.3-2.1-1c-0.6,0.2-1.3-0.3-1.4-1.1c-0.1-0.8-0.3-1-1.1-0.8c-0.7,0.1-1.1-0.4-1.2-1.1
		c-0.2-1-0.5-1.3-1.6-1.2c-0.8,0-1.4-0.9-1.1-1.9c0.2-0.9-0.3-1.7-1.2-1.8c-0.9-0.1-1.2-0.8-0.8-1.6c0.2-0.4,0.5-0.7,0.4-1.2
		c-0.1-0.5,0-0.9-0.8-1c-0.7-0.1-0.9-1-0.4-1.6c0.3-0.3,0.6-0.5,1-0.6c0.2,0,0.4-0.1,0.4-0.3c0-0.3-0.3-0.3-0.5-0.3
		c-0.8,0-1.6,0.1-2.4,0.1c-1.4,0-2.4-0.9-2.3-2.4c0.2-3.1,0.5-6.2,0.8-9.3c0-0.5,0.3-0.6,0.8-0.7c1.6-0.3,3.2-0.7,4.8-1.1
		c0.4-0.1,0.6-0.2,0.7-0.6c0.3-0.9,1-1.1,1.7-0.3c0.2,0.3,0.4,0.3,0.7,0.2c1.6-0.4,3.2-0.7,4.8-1.1c0.2,0,0.4-0.1,0.4-0.2
		c0.2-1.1,1.1-0.8,1.8-0.9c0.7-0.1,1.2-0.2,0.9-1.1c-0.1-0.4,0.1-0.6,0.5-0.6c1.4-0.1,1.4-0.1,1.8-1.5c0.4-1.7,0.4-1.7-1.3-2
		c-1.4-0.3-2.8-0.7-4.1-1.4c-0.1-0.1-0.3-0.1-0.5-0.1c-0.2-0.1-0.5,0.1-0.5-0.2c0-0.3,0.1-0.7,0.3-1c0.2-0.3,0.4,0.1,0.6,0.1
		c1,0,1.8,0.5,2.7,0.6c0.9,0.2,1.8,0.5,2.6,0.8c0.5,0.2,0.9,0.2,1-0.5c0.2-1.1,0.5-2.1,0.7-3.1c0.1-0.4,0.2-0.8,0.7-0.6
		c1,0.3,1.7-0.6,2.7-0.4c0.2,0,0.3-0.1,0.3-0.3c0.2-1.2,1.2-0.6,1.8-0.7c0.4,0,0.4,0.5,0.4,0.7c0.1,1.1,0.5,1.4,1.6,1.3
		c1.1-0.1,2.3-0.1,3.4-0.1c0.6,0,0.8-0.1,0.7-0.7c-0.1-0.9,0.1-1.7,1.3-1.6c0.2,0,0.4,0,0.4-0.2c0-0.9,0.6-0.7,1.1-0.7
		c1.5,0,2.9,0,4.4,0c0.4,0,0.8-0.1,0.7,0.5c0,0.5,0.4,0.4,0.7,0.4c1.3,0,2.6,0,3.8,0c1.2,0,1.4,0.2,1.4,1.4c0,0.7,0.2,0.8,0.8,0.8
		c1-0.1,2.1-0.1,3.1-0.1c0.4,0,0.7-0.1,0.8-0.6c0.1-0.5,0.5-0.7,1-0.7c0.6,0,1.3,0.1,1.9,0c0.3,0,0.8,0.3,1-0.2
		c0.2-0.5,0.4-1.1,0-1.6c-0.5-0.8-1.1-1.5-1.8-2.2c-0.6-0.5-1.4-0.2-2.1-0.2c-0.3,0-0.2,0.4-0.2,0.7c-0.1,1.5-0.2,1.7-1.5,1.3
		c-1-0.2-2.1-0.5-2.6-1.4c-0.6-0.9-1.3-1.1-2.3-1.1c-0.5,0-0.8-0.2-1.2-0.6c-0.3-0.4-1-0.8-1.8-0.8c-5.5,0-11.1,0-16.6,0
		c-0.8,0-1.6,0.2-2.2-0.7c-0.2-0.3-0.6-0.1-0.9-0.1c-6.6,0-13.1,0-19.7,0c-0.9,0-1.5-0.3-1.9-0.9c-0.3-0.5-0.6-0.5-1.1-0.5
		c-11.7-0.1-23.5-0.1-35.2-0.2c-1.4,0-2.7,0-4-0.1c-1.6-0.1-3,0.3-4.5,0.8c-1.4,0.5-2.9,1.2-4.3,0.8c-2.1-0.6-4.2,0-6.3-0.6
		c-0.6-0.2-0.8-0.4-0.8-1c0-1.3,0-2.6,0-3.9c0-0.5,0.2-0.7,0.7-0.8c0.6-0.1,1.2-0.2,1.8-0.3c1.3-0.1,2.5,0.2,3.9-0.3
		c1.3-0.5,2.9,0,4.2,0.6c2.5,1.1,5.2,1.2,7.9,1.1c12.1-0.2,24.2-0.3,36.3-0.4c0.6,0,1.1,0.1,1.4-0.6c0.2-0.4,0.9-0.7,1.5-0.7
		c6.6,0,13.3,0,19.9,0c0.5,0,1,0.1,1.3-0.5c0.1-0.3,0.4-0.3,0.7-0.3c0.6,0,1.1-0.1,1.7-0.1c5.3,0,10.7,0,16,0c0.9,0,1.7-0.2,2.1-1
		c0.2-0.3,0.6-0.3,0.9-0.3c1,0,1.9-0.2,2.1-1.4c0-0.1,0.2-0.2,0.3-0.3c1.1-0.7,2.1-1.3,3.5-1.3c0.5,0,0.7,0.2,0.7,0.7
		c0,1.6,0,1.5,1.6,1.6c0.7,0,1.1-0.1,1.5-0.7c0.3-0.5,0.8-0.6,1.3-0.8c4.7-1.1,9.3-2.3,14-3.4c0.9-0.2,1.4-0.5,1.2-1.5
		c-0.2-0.8,0.2-1.1,1-1c2,0.1,4.1,0,6.1,0c0.4,0,0.8-0.1,0.8,0.5c0,0.5,0.5,0.3,0.8,0.3c0.4,0,0.5-0.1,0.7-0.5
		c0.4-1.3,0.9-1.6,2.3-1.4c0.7,0.1,0.4,0.6,0.4,1C138.8,6,138.7,6,139.6,6z M200.6,74c0.3-0.6,0.5-1.1,0.7-1.5
		c0.2-0.3,0.1-0.5-0.2-0.6c-1.3-0.8-2.4-1.8-3.3-3.1c-0.9,1.6-2,3-3.6,3.9c-1,0.5-1.3,1.1-0.7,2c0,0,0.1,0.1,0.2,0.1
		c0.2-0.3,0.3-0.6,0.4-0.9c0.2-0.3,0.3-0.7,0.5-1c0.5-0.7,1.1-0.7,1.6-0.1c0.3,0.3,0.5,0.7,0.8,1c0.4-0.6,0.6-1.2,1-1.7
		c0.4-0.6,1-0.6,1.5-0.1C199.9,72.7,200.3,73.2,200.6,74z M152.5,2.1c-0.2,0-0.4,0-0.7,0c-0.8-0.1-1.1,0.1-1.1,1
		c0.1,0.8,0,1.5,0.6,2.2c0.4,0.5,0.6,0.8,1.2,0.8c0.6,0,0.9-0.2,1.2-0.7c0.3-0.5,0.3-1.1,0.3-1.6C154.1,2.1,154.1,2.1,152.5,2.1z
		 M3.7,20.5c1.9,0,2.2-0.2,2.2-1.5c0-1.2-0.2-1.4-1.4-1.5c-0.3,0-0.6,0-0.8,0c-1.4,0.1-1.7,0.6-1.5,2C2.2,20.7,3.1,20.4,3.7,20.5z
		 M79.3,72.7c0.7-0.6,1.1-1.3,1.8-1.8c0.2-0.1,0.2-0.3,0.1-0.5c-0.2-0.3-0.4-0.9-0.6-0.9c-0.9-0.1-1.4-0.8-2.2-1
		c-0.2-0.1-0.4,0.1-0.5,0.4c-0.1,0.2-0.2,0.5,0.1,0.7C78.9,70.4,79.2,71.4,79.3,72.7z M157.8,4c0.5,0,0.9,0,1.4,0
		c0.8,0,0.6-0.5,0.5-0.9c0-0.4,0.2-0.9-0.5-0.9c-0.9,0-1.7,0-2.6,0c-0.5,0-0.7,0.2-0.7,0.7c-0.1,0.8,0.1,1.3,1.1,1.1
		C157.2,4,157.5,4,157.8,4z M205.5,69.2c0-0.3,0-0.6,0-0.8c0-0.3,0.1-0.6-0.4-0.8c-0.4-0.1-0.7-0.2-1,0.2c-0.2,0.3-0.5,0.6-0.8,0.8
		c-1.1,1.2-1.1,1.2,0.5,1.7C205.5,70.8,205.5,70.8,205.5,69.2z M7.2,19c0.3,0.4-0.5,1.3,0.7,1.3c1.2,0,2.2-0.5,2.2-1.2
		c0-0.7-1-1.2-2.2-1.3C6.8,17.8,7.5,18.6,7.2,19z M207.5,69.1c0,0.2,0,0.5,0,0.7c0,0.2-0.2,0.6,0.1,0.7c0.3,0.2,0.5,0,0.7-0.3
		c0.3-0.3,0.6-0.5,1.1-0.4c0.5,0.1,0.7-0.2,0.4-0.7c-0.2-0.2-0.2-0.5-0.4-0.6c-0.4-0.4-0.4-1.3-1.3-1.1
		C207.2,67.7,207.8,68.6,207.5,69.1z M212.8,66.6c0.1-0.3-0.1-0.5-0.4-0.6c-0.4-0.2-0.9-0.4-1.3-0.5c-0.2-0.1-0.5-0.3-0.6,0
		c-0.2,0.2-0.3,0.4-0.1,0.8c0.4,0.6,0.7,1.2,1.1,1.7c0.1,0.2,0.3,0.4,0.5,0.2C212.3,67.8,212.8,67.4,212.8,66.6z M147,4.1
		c0.6,0,1.2,0.2,1.1-0.8c-0.1-0.7,0-1.2-1-1.1c-0.7,0.1-1.2,0-1.1,1C146.1,3.8,146.2,4.3,147,4.1z M179.4,74.5
		c0.3-0.4,0.6-0.8,0.9-1.2c0.6-0.6,1.2-0.5,1.6,0.2c0.2,0.4,0.4,0.7,0.5,1.1c0.3,0.6,0.6,0.6,0.9,0.1c0.3-0.5,0.5-0.8-0.2-1.1
		c-0.3-0.1-0.7-0.2-0.9-0.5c-0.9-0.8-1.6-0.7-2.6-0.1C178.9,73.6,178.8,73.9,179.4,74.5z M70.1,67.2c0.7-1.4,0.6-1.3-0.5-2.3
		c-0.7-0.7-1.2-0.6-1.8,0.1c-0.2,0.2-0.6,0.3-0.3,0.7c0.2,0.3,0.5,0.2,0.8,0.1c0.9-0.4,1.3-0.2,1.6,0.8C69.9,66.8,70,67,70.1,67.2z
		 M75,67.2c-0.8-0.3-1.6-0.6-2.3-0.9c-0.7-0.4-0.7,0.2-0.8,0.6c-0.2,0.5-0.2,0.8,0.5,0.9C73.3,67.8,74.2,67.7,75,67.2z M65,61
		c-0.3,1,0.7,1.2,0.8,1.9c0.2,0.7,0.7,0.5,1.1,0.7c0.2,0.1,0.3-0.1,0.5-0.3c0.2-0.2-0.1-0.3-0.2-0.4C66.5,62.2,65.8,61.7,65,61z
		 M173.5,33.3c0-0.1,0-0.2,0-0.3c-0.1-0.3,0.2-0.8-0.3-0.8c-0.5,0-0.3,0.6-0.3,0.9c0,0.6-0.2,0.9-0.8,0.8c-0.2,0-0.5,0-0.8,0
		c-0.1,0-0.2,0.2-0.2,0.3c0,0.1,0.1,0.2,0.2,0.2c0.7,0,1.3,0.1,1.9,0C173.7,34.2,173.4,33.6,173.5,33.3z M174.9,33.3
		c-0.3,0.9,0.2,1.2,1.2,1.1c0.1,0,0.2,0,0.4,0c0.3-0.1,0.7,0.2,0.7-0.3c0-0.5-0.5-0.3-0.8-0.3c-0.5,0-1,0.1-0.9-0.7
		c0-0.3,0.3-1-0.3-0.9c-0.5,0-0.2,0.6-0.2,0.9C174.9,33.1,174.9,33.2,174.9,33.3z M173.5,36.9c0.2-0.8-0.2-1.2-1.1-1
		c-0.2,0-0.3,0-0.5,0c-0.2,0-0.7-0.2-0.7,0.3c0,0.4,0.4,0.3,0.7,0.3c0.7-0.1,1.1,0.1,1,1c0,0.3-0.2,0.7,0.3,0.7
		c0.4,0,0.2-0.5,0.2-0.7C173.5,37.2,173.5,37.1,173.5,36.9z M174.9,36.9c0,0.1,0,0.2,0,0.3c0.1,0.3-0.2,0.8,0.3,0.8
		c0.5,0,0.3-0.5,0.3-0.8c-0.1-0.7,0.2-1,0.9-0.9c0.2,0,0.4,0,0.6-0.1c0.1,0,0.1-0.2,0.2-0.3c0-0.1-0.1-0.2-0.2-0.2
		c-0.7,0-1.3-0.1-1.9,0C174.7,36,175,36.6,174.9,36.9z M139.3,74.9c1-1.4,1-1.4,0.1-2c-0.3-0.2-0.4-0.1-0.6,0
		c-0.2,0.2-0.2,0.3-0.1,0.5C138.9,73.9,139.1,74.4,139.3,74.9z M124.9,75c0.3-0.4,0.5-0.8,0.8-1.2c0.3-0.4,0-0.5-0.2-0.7
		c-0.3-0.2-0.5-0.5-0.9-0.2c-0.3,0.2-0.3,0.5-0.2,0.8C124.6,74.1,124.7,74.6,124.9,75z M167.6,72.4c0.3,0.8,0.7,1.5,0.9,2.4
		c0.3-0.4,0.5-0.7,0.7-1c0.2-0.2,0.2-0.4-0.1-0.5C168.5,73,168,72.7,167.6,72.4z M213.8,64.3c-0.1-0.7,0.1-1.2,0.1-1.8
		c-0.6,0.3-1.2,0.6-1.9,0.9C212.7,63.7,213.2,64,213.8,64.3z M154,74.6c0.1-0.6,1.1-0.8,0.6-1.6c-0.2-0.2-0.5-0.6-0.9-0.2
		C152.9,73.5,154,73.9,154,74.6z M99.4,75.2c1.1-1.3,1-1.4-0.9-2.1C98.8,73.8,99.2,74.4,99.4,75.2z M75.7,71.6
		c0.3-0.5,0.5-0.8,0.8-1.1c0.2-0.3,0.1-0.5-0.1-0.6c-0.2-0.2-0.4-0.3-0.7-0.2c-0.3,0.1-0.2,0.4-0.2,0.6
		C75.6,70.7,75.6,71.1,75.7,71.6z M96.4,73.8c-0.5,0.3-0.8,0.4-1,0.5c-0.3,0.1-0.3,0.3-0.2,0.5c0.1,0.1,0,0.4,0.2,0.3
		c0.2,0,0.3-0.2,0.4-0.3C95.9,74.6,96.1,74.3,96.4,73.8z"/>
</g>
</svg>
